<svg width="82" height="82" viewBox="0 0 82 82" fill="none" xmlns="http://www.w3.org/2000/svg">
<circle cx="41" cy="41" r="41" fill="#32CF5E"/>
<path d="M32.983 26.785L37.1696 30.9716C38.6648 32.4668 38.0667 35.0087 36.123 35.6068C34.7772 36.0553 34.0296 37.5505 34.3287 38.8962C35.0763 41.8867 38.9639 45.9237 42.1038 46.6713C43.4496 47.1199 44.9448 46.2228 45.3933 44.8771C45.9914 42.9333 48.5332 42.3352 50.0284 43.8304L54.215 48.017C55.2617 49.2132 55.2617 51.0074 54.215 52.0541L51.3741 54.895C48.3837 57.7359 40.4591 54.5959 33.4316 47.5685C26.4041 40.541 23.1146 32.6164 26.1051 29.6259L28.946 26.785C30.1421 25.7383 31.9364 25.7383 32.983 26.785Z" fill="white"/>
</svg>
