<svg width="27" height="28" viewBox="0 0 27 28" fill="none" xmlns="http://www.w3.org/2000/svg">
<path d="M26.8169 17.125C26.8169 14.0833 24.3423 11.6087 21.3006 11.6087C19.6783 11.6087 18.2175 12.3127 17.2072 13.4312C16.6189 13.1305 16.0086 12.8802 15.3829 12.6824C17.2332 11.5073 18.4637 9.44005 18.4637 7.09057C18.4637 3.44051 15.4941 0.471008 11.8441 0.471008C8.19403 0.471008 5.22452 3.44051 5.22452 7.09057C5.22452 9.43495 6.44962 11.4984 8.29317 12.6748C6.49837 13.2375 4.85372 14.2281 3.48563 15.5962C1.253 17.8288 0.0234375 20.7972 0.0234375 23.9547V26.5815C0.0234375 27.0167 0.376271 27.3696 0.811481 27.3696H22.8767C23.3119 27.3696 23.6647 27.0167 23.6647 26.5815V23.9547C23.6647 23.3623 23.6182 22.765 23.5274 22.1713C25.4631 21.3139 26.8169 19.3747 26.8169 17.125ZM6.80061 7.09057C6.80061 4.30957 9.06308 2.0471 11.8441 2.0471C14.6251 2.0471 16.8876 4.30957 16.8876 7.09057C16.8876 9.87158 14.6251 12.1341 11.8441 12.1341C9.06308 12.1341 6.80061 9.87158 6.80061 7.09057ZM22.0887 23.9547V25.7935H1.59952V23.9547C1.59952 18.3058 6.19524 13.7101 11.8441 13.7101C13.3923 13.7101 14.9251 14.069 16.3217 14.7514C15.9774 15.4707 15.7843 16.2757 15.7843 17.125C15.7843 20.1667 18.2589 22.6413 21.3006 22.6413C21.5364 22.6413 21.7688 22.6264 21.9968 22.5975C22.0577 23.0502 22.0887 23.5043 22.0887 23.9547ZM22.4406 20.8964C22.4211 20.9014 22.4016 20.9066 22.3827 20.9129C22.0386 21.0114 21.6759 21.0652 21.3006 21.0652C19.128 21.0652 17.3604 19.2976 17.3604 17.125C17.3604 14.9524 19.128 13.1848 21.3006 13.1848C23.4732 13.1848 25.2408 14.9524 25.2408 17.125C25.2408 18.9013 24.0591 20.4062 22.4406 20.8964Z" fill="white"/>
</svg>
