<svg width="15" height="23" viewBox="0 0 15 23" fill="none" xmlns="http://www.w3.org/2000/svg">
<path d="M7.5 23C3.53635 23 0.3125 19.7762 0.3125 15.8125V5.75C0.3125 5.22006 0.74189 4.79173 1.27077 4.79173C1.79984 4.79173 2.22923 5.22006 2.22923 5.75V15.8125C2.22923 18.7182 4.59341 21.0833 7.5 21.0833C10.4066 21.0833 12.7708 18.7182 12.7708 15.8125V5.27077C12.7708 3.42126 11.2662 1.91673 9.41673 1.91673C7.56703 1.91673 6.0625 3.42126 6.0625 5.27077V14.8542C6.0625 15.6467 6.70737 16.2917 7.5 16.2917C8.29263 16.2917 8.9375 15.6467 8.9375 14.8542V5.75C8.9375 5.22006 9.36689 4.79173 9.89577 4.79173C10.4248 4.79173 10.8542 5.22006 10.8542 5.75V14.8542C10.8542 16.7037 9.34952 18.2083 7.5 18.2083C5.65048 18.2083 4.14577 16.7037 4.14577 14.8542V5.27077C4.14577 2.36524 6.50996 0 9.41673 0C12.3233 0 14.6875 2.36524 14.6875 5.27077V15.8125C14.6875 19.7762 11.4637 23 7.5 23Z" fill="#808080"/>
</svg>
