<svg width="35" height="35" viewBox="0 0 35 35" fill="none" xmlns="http://www.w3.org/2000/svg">
<circle cx="17.5" cy="17.5" r="17.5" fill="#8BBE1E"/>
<g clip-path="url(#clip0)">
<path d="M15.5005 12.3869C15.5996 12.3869 15.7003 12.3647 15.7951 12.3176C16.3083 12.063 16.86 11.93 17.435 11.9223C17.4407 11.9222 17.4463 11.9214 17.4521 11.9212C17.457 11.9213 17.4618 11.9219 17.4667 11.9219C17.4843 11.9219 17.5014 11.9207 17.5186 11.9193C17.534 11.9206 17.5493 11.9221 17.5649 11.9223C19.6711 11.9506 21.3847 13.6782 21.3847 15.7735V18.0977C21.3847 19.1116 21.7822 20.0051 22.5343 20.6817C23.0651 21.1593 23.593 21.3653 23.6769 21.3962C23.758 21.4314 23.8473 21.4512 23.9413 21.4512C24.3081 21.4512 24.6054 21.1539 24.6054 20.7871C24.6054 20.4868 24.4059 20.2334 24.1323 20.1513L24.1331 20.1489L24.1374 20.1504C24.0792 20.1286 22.7128 19.5974 22.7128 18.0977V15.7735C22.7128 13.1401 20.7028 10.9388 18.1308 10.6308V9.66412C18.1308 9.29736 17.8335 9.00006 17.4667 9.00006C17.1 9.00006 16.8027 9.29736 16.8027 9.66412V10.6392C16.2478 10.7128 15.7124 10.876 15.2049 11.1278C14.8764 11.2908 14.7422 11.6893 14.9051 12.0179C15.0211 12.2516 15.2562 12.3869 15.5005 12.3869Z" fill="white"/>
<path d="M25.8056 24.8671L10.1338 9.19524C9.87442 8.9359 9.45394 8.9359 9.19462 9.19524C8.93531 9.45459 8.93527 9.87504 9.19462 10.1344L12.7565 13.6963C12.4707 14.3487 12.3204 15.0593 12.3204 15.7742V18.0984C12.3204 19.5813 10.9844 20.1173 10.8983 20.1502C10.6315 20.243 10.4611 20.4917 10.4611 20.7743C10.4611 21.4713 10.7093 22.2333 11.1252 22.8128C11.6787 23.5839 12.5042 24.0085 13.4497 24.0085H15.5079C15.5079 25.107 16.4016 26.0007 17.5001 26.0007C18.5986 26.0007 19.4923 25.107 19.4923 24.0085H21.5505C22.0091 24.0085 22.4301 23.9205 22.8071 23.747L24.8664 25.8062C24.9961 25.9359 25.1661 26.0007 25.336 26.0007C25.506 26.0007 25.6759 25.9359 25.8056 25.8062C26.065 25.5469 26.065 25.1264 25.8056 24.8671ZM17.5001 24.6726C17.1339 24.6726 16.836 24.3747 16.836 24.0085H18.1642C18.1642 24.3747 17.8663 24.6726 17.5001 24.6726ZM21.5505 22.6804H13.4497C12.4227 22.6804 11.9644 21.8199 11.8319 21.1665C12.0279 21.0531 12.2631 20.8945 12.499 20.6824C13.251 20.0058 13.6485 19.1123 13.6485 18.0984V15.7742C13.6485 15.4215 13.6976 15.0704 13.7925 14.7324L21.7319 22.6717C21.6728 22.6769 21.6127 22.6804 21.5505 22.6804Z" fill="white"/>
</g>
<defs>
<clipPath id="clip0">
<rect width="17" height="17" fill="white" transform="translate(9 9)"/>
</clipPath>
</defs>
</svg>
