<svg width="35" height="35" viewBox="0 0 35 35" fill="none" xmlns="http://www.w3.org/2000/svg">
<circle cx="17.5" cy="17.5" r="17.5" fill="#1EBE71"/>
<path d="M14.7254 11.3671L16.6792 13.325C17.3769 14.0242 17.0978 15.2129 16.1907 15.4926C15.5627 15.7024 15.2138 16.4016 15.3534 17.0309C15.7023 18.4294 17.5165 20.3173 18.9818 20.6669C19.6098 20.8767 20.3076 20.4571 20.5169 19.8278C20.796 18.9188 21.9822 18.6391 22.6799 19.3384L24.6337 21.2962C25.1221 21.8556 25.1221 22.6947 24.6337 23.1842L23.3079 24.5127C21.9124 25.8412 18.2142 24.3729 14.9348 21.0865C11.6553 17.8001 10.1202 14.0941 11.5157 12.6957L12.8415 11.3671C13.3997 10.8776 14.237 10.8776 14.7254 11.3671Z" fill="white"/>
</svg>
