<svg width="25" height="23" viewBox="0 0 25 23" fill="none" xmlns="http://www.w3.org/2000/svg">
<path d="M21.8749 3.68733H19.7157L18.1524 0.562225H6.84608L5.28426 3.68887L3.12813 3.69271C1.40919 3.69578 0.00987809 5.09657 0.00839381 6.81628L0 19.3121C0 21.0356 1.40156 22.4379 3.12511 22.4379H21.8749C23.5985 22.4379 25.0001 21.0364 25.0001 19.3128V6.81239C25 5.0889 23.5984 3.68733 21.8749 3.68733ZM12.4996 18.5315C9.05329 18.5315 6.2494 15.7276 6.2494 12.2813C6.2494 8.83499 9.05329 6.0311 12.4996 6.0311C15.9459 6.0311 18.7498 8.83499 18.7498 12.2813C18.7498 15.7276 15.9459 18.5315 12.4996 18.5315Z" fill="#BEBEBE"/>
</svg>
