<svg width="55" height="56" viewBox="0 0 55 56" fill="none" xmlns="http://www.w3.org/2000/svg">
<path d="M39.6193 0H11.1833C9.96826 0 8.98334 1.00283 8.98334 2.24003V53.76C8.98334 54.9971 9.96826 56 11.1834 56H47.1165C48.3315 56 49.3166 54.9972 49.3166 53.76V9.87363L39.6193 0Z" fill="white"/>
<path d="M49.3166 30.8605H5.68329V46.203H49.3166V30.8605Z" fill="#27A2DB"/>
<path d="M21.4603 35.1269C22.349 35.946 22.7924 37.0853 22.7924 38.545C22.7924 40.004 22.3619 41.1592 21.5 42.0094C20.6381 42.8602 19.3189 43.2853 17.5435 43.2853H14.4833V33.8979H17.6488C19.3017 33.8979 20.5726 34.3078 21.4603 35.1269ZM21.2231 38.5848C21.2231 36.4361 20.0144 35.3618 17.5962 35.3618H16.0397V41.7945H17.7679C18.8842 41.7945 19.7397 41.524 20.3333 40.9819C20.9267 40.4406 21.2231 39.6416 21.2231 38.5848Z" fill="#EBF0F3"/>
<path d="M32.5129 41.9892C31.5811 42.9159 30.4294 43.3793 29.0577 43.3793C27.6859 43.3793 26.5342 42.9159 25.6025 41.9892C24.6697 41.063 24.2039 39.9077 24.2039 38.5247C24.2039 37.1411 24.6697 35.9864 25.6025 35.0597C26.5342 34.1329 27.6859 33.6701 29.0577 33.6701C30.4294 33.6701 31.5811 34.1329 32.5129 35.0597C33.4456 35.9864 33.9114 37.1411 33.9114 38.5247C33.9114 39.9077 33.4456 41.0629 32.5129 41.9892ZM31.3729 36.1138C30.7439 35.4515 29.9721 35.1204 29.0577 35.1204C28.1431 35.1204 27.3713 35.4515 26.7424 36.1138C26.1145 36.7766 25.8 37.5799 25.8 38.5247C25.8 39.4695 26.1145 40.2728 26.7424 40.935C27.3715 41.5979 28.1432 41.929 29.0577 41.929C29.9722 41.929 30.744 41.5979 31.3729 40.935C32.0008 40.2728 32.3153 39.4694 32.3153 38.5247C32.3153 37.58 32.0009 36.7765 31.3729 36.1138Z" fill="#EBF0F3"/>
<path d="M40.0845 41.8482C40.62 41.8482 41.0816 41.7569 41.4692 41.5734C41.8556 41.3898 42.2603 41.0963 42.6831 40.6936L43.6846 41.7411C42.7088 42.8423 41.5239 43.3931 40.1306 43.3931C38.7363 43.3931 37.5802 42.9363 36.6615 42.0231C35.7427 41.11 35.2832 39.9548 35.2832 38.5581C35.2832 37.1613 35.7512 35.9979 36.6882 35.0662C37.6242 34.1356 38.8071 33.6701 40.2357 33.6701C41.6644 33.6701 42.858 34.2073 43.8165 35.2816L42.8279 36.3827C42.3879 35.9532 41.9724 35.6533 41.5806 35.4827C41.1899 35.3128 40.7305 35.2276 40.2024 35.2276C39.2707 35.2276 38.4882 35.5346 37.855 36.1478C37.2217 36.7609 36.905 37.5445 36.905 38.498C36.905 39.4516 37.2196 40.2483 37.8485 40.8882C38.4777 41.5285 39.2225 41.8482 40.0845 41.8482Z" fill="#EBF0F3"/>
<path d="M5.68329 46.2026L8.98334 49.327V46.2026H5.68329Z" fill="#2D93BA"/>
<path d="M39.6194 9.87363H49.3166L39.6193 0L39.6194 9.87363Z" fill="#DDDDDD"/>
<path d="M41.485 9.8736L49.3166 14.5V9.8736H41.485Z" fill="#EFEFEF"/>
</svg>
