<svg width="35" height="35" viewBox="0 0 35 35" fill="none" xmlns="http://www.w3.org/2000/svg">
<circle cx="17.5" cy="17.5" r="17.5" fill="#1EBE71"/>
<path d="M18.3002 16.9066C17.3086 16.9066 16.5018 16.1 16.5018 15.1083C16.5018 14.1165 17.3086 13.3099 18.3002 13.3099C19.2919 13.3099 20.0985 14.1165 20.0985 15.1083C20.0985 16.1 19.2919 16.9066 18.3002 16.9066ZM18.3002 14.506C17.9682 14.506 17.6979 14.7763 17.6979 15.1083C17.6979 15.4402 17.9682 15.7105 18.3002 15.7105C18.6322 15.7105 18.9024 15.4403 18.9024 15.1083C18.9024 14.7763 18.6322 14.506 18.3002 14.506Z" fill="white" stroke="white" stroke-width="0.2"/>
<path d="M24.9039 20.4662L21.9421 17.5044C21.8244 17.3867 21.6674 17.3217 21.501 17.3217C21.3343 17.3217 21.1772 17.3868 21.0595 17.5047M24.9039 20.4662L18.3708 20.3347L18.3001 20.264M24.9039 20.4662V11.3246H10.0961V18.8658M24.9039 20.4662L10.0961 18.8658M21.0595 17.5047L21.1303 17.5754L21.0596 17.5046L21.0595 17.5047ZM21.0595 17.5047L18.3001 20.264M18.3001 20.264L13.9402 15.904C13.697 15.6608 13.3016 15.6607 13.0582 15.9036L13.0581 15.9036L10.0961 18.8658M18.3001 20.264L18.2294 20.3347L10.0961 18.8658M24.9039 22.1577V23.7125H10.096V20.5573L13.499 17.1543L17.8591 21.5143L24.9039 22.1577ZM24.9039 22.1577L21.501 18.7548M24.9039 22.1577L21.501 18.7548M21.501 18.7548L18.7416 21.5141C18.6239 21.6319 18.4668 21.6972 18.3001 21.6972C18.1338 21.6972 17.9767 21.6321 17.8591 21.5144L21.501 18.7548ZM9.62074 10.1285H25.3793C25.7768 10.1285 26.1 10.4518 26.1 10.8493V24.1878C26.1 24.5853 25.7768 24.9086 25.3793 24.9086H9.62074C9.22324 24.9086 8.9 24.5853 8.9 24.1878V10.8493C8.9 10.4518 9.22324 10.1285 9.62074 10.1285Z" fill="white" stroke="white" stroke-width="0.2"/>
</svg>
