<svg width="23" height="23" viewBox="0 0 23 23" fill="none" xmlns="http://www.w3.org/2000/svg">
<g clip-path="url(#clip0)">
<path d="M18.8601 11.8789C18.8601 11.4189 18.5084 11.0671 18.0484 11.0671C17.5884 11.0671 17.2366 11.4189 17.2366 11.8789C17.2366 15.0448 14.666 17.6153 11.5001 17.6153C8.33425 17.6153 5.76367 15.0448 5.76367 11.8789C5.76367 11.4189 5.4119 11.0671 4.9519 11.0671C4.4919 11.0671 4.14014 11.4189 4.14014 11.8789C4.14014 15.64 6.95425 18.8059 10.6884 19.2118V21.3765H7.73896C7.27896 21.3765 6.9272 21.7283 6.9272 22.1883C6.9272 22.6483 7.27896 23.0001 7.73896 23.0001H15.2613C15.7213 23.0001 16.0731 22.6483 16.0731 22.1883C16.0731 21.7283 15.7213 21.3765 15.2613 21.3765H12.3119V19.2118C16.046 18.8059 18.8601 15.64 18.8601 11.8789Z" fill="#808080"/>
<path d="M11.4998 0C9.01037 0 6.98096 2.02941 6.98096 4.51882V11.8518C6.98096 14.3682 9.01037 16.3706 11.4998 16.3976C13.9892 16.3976 16.0186 14.3682 16.0186 11.8788V4.51882C16.0186 2.02941 13.9892 0 11.4998 0Z" fill="#808080"/>
</g>
<defs>
<clipPath id="clip0">
<rect width="23" height="23" fill="white"/>
</clipPath>
</defs>
</svg>
