<svg width="12" height="12" viewBox="0 0 12 12" fill="none" xmlns="http://www.w3.org/2000/svg">
<path d="M11.0371 7.87663C10.3024 7.87663 9.58106 7.76172 8.89747 7.53581C8.5625 7.42156 8.15072 7.52638 7.94628 7.73634L6.597 8.75491C5.03222 7.91963 4.06834 6.95606 3.24447 5.40303L4.23306 4.08891C4.48991 3.83241 4.58203 3.45772 4.47166 3.10616C4.24478 2.41897 4.12953 1.69794 4.12953 0.962937C4.12956 0.431969 3.69759 0 3.16666 0H0.962906C0.431969 0 0 0.431969 0 0.962906C0 7.04884 4.95119 12 11.0371 12C11.5681 12 12 11.568 12 11.0371V8.8395C12 8.30859 11.568 7.87663 11.0371 7.87663Z" fill="#323232"/>
</svg>
