<svg width="25" height="25" viewBox="0 0 25 25" fill="none" xmlns="http://www.w3.org/2000/svg">
<path d="M19.2604 17.8046L24.6948 12.3692C24.9435 12.1226 25.0486 11.7667 24.9789 11.4232C24.9081 11.0808 24.6698 10.7957 24.3441 10.6667C20.657 9.19623 17.8649 9.51467 16.6817 9.76965L10.1161 4.18333C10.2462 1.97295 9.0577 0.467128 9.00253 0.398444C8.81833 0.16844 8.5436 0.0279506 8.24803 0.0113162C7.95559 0.000925814 7.66422 0.107074 7.45607 0.315174L0.30468 7.46664C0.0944816 7.67582 -0.0158616 7.96616 0.00184596 8.26275C0.0184804 8.55832 0.161068 8.83408 0.394194 9.01725C1.67212 10.0329 3.26956 10.1401 4.11772 10.1183L9.75396 16.7432C9.54893 17.9274 9.28463 20.832 10.6791 24.3338C10.8081 24.6595 11.0922 24.8968 11.4346 24.9686C11.5054 24.9821 11.5751 24.9894 11.6448 24.9894C11.9185 24.9894 12.1839 24.8822 12.3806 24.6845L17.7889 19.2761L23.1962 24.6845C23.3992 24.8874 23.6656 24.9894 23.932 24.9894C24.1984 24.9894 24.4648 24.8874 24.6678 24.6845C25.0747 24.2776 25.0747 23.6199 24.6678 23.213L19.2604 17.8046Z" fill="white"/>
</svg>
