<svg width="186" height="42" viewBox="0 0 186 42" fill="none" xmlns="http://www.w3.org/2000/svg">
<rect x="164" y="16" width="4" height="10" rx="2" fill="#4DC98D"/>
<rect x="173" y="15" width="4" height="12" rx="2" fill="#4DC98D"/>
<rect x="182" y="10" width="4" height="22" rx="2" fill="#4DC98D"/>
<rect x="75" y="1" width="4" height="39" rx="2" fill="#4DC98D"/>
<rect x="93" y="1" width="4" height="39" rx="2" fill="#4DC98D"/>
<rect x="102" y="4" width="4" height="33" rx="2" fill="#4DC98D"/>
<rect x="111" y="10" width="4" height="21" rx="2" fill="#4DC98D"/>
<rect x="120" y="16" width="4" height="10" rx="2" fill="#4DC98D"/>
<rect x="129" y="16" width="4" height="10" rx="2" fill="#4DC98D"/>
<rect x="138" y="14" width="4" height="14" rx="2" fill="#4DC98D"/>
<rect x="156" y="16" width="4" height="9" rx="2" fill="#4DC98D"/>
<rect x="12" y="16" width="4" height="10" rx="2" fill="#4DC98D"/>
<rect x="3" y="16" width="4" height="10" rx="2" fill="#4DC98D"/>
<rect x="21" y="15" width="4" height="12" rx="2" fill="#4DC98D"/>
<rect x="30" y="10" width="4" height="22" rx="2" fill="#4DC98D"/>
<rect x="39" y="7" width="4" height="28" rx="2" fill="#4DC98D"/>
<rect x="48" y="1" width="4" height="39" rx="2" fill="#4DC98D"/>
<rect x="57" y="11" width="4" height="20" rx="2" fill="#4DC98D"/>
<rect x="147" y="10" width="4" height="22" rx="2" fill="#4DC98D"/>
<rect x="84" y="3" width="4" height="35" rx="2" fill="#4DC98D"/>
<rect x="66" y="10" width="4" height="22" rx="2" fill="#4DC98D"/>
</svg>
