<svg width="28" height="32" viewBox="0 0 28 32" fill="none" xmlns="http://www.w3.org/2000/svg">
<path d="M23.883 6.086L21.063 8.918C22.953 10.809 24 13.324 24 16C24 21.516 19.516 26 14 26V24.9657C14 24.6093 13.5691 24.4309 13.3172 24.6828L10 28L13.3172 31.3172C13.5691 31.5691 14 31.3907 14 31.0343V30C21.719 30 28 23.719 28 16C28 12.254 26.539 8.734 23.883 6.086Z" fill="white"/>
<path d="M17.7879 4.21213C17.905 4.09497 17.905 3.90503 17.7879 3.78787L14.5121 0.512131C14.3231 0.323142 14 0.456993 14 0.724264V2C6.281 2 0 8.281 0 16C0 19.746 1.461 23.266 4.117 25.914L6.937 23.082C5.047 21.191 4 18.676 4 16C4 10.484 8.484 6 14 6V7.27574C14 7.54301 14.3231 7.67686 14.5121 7.48787L17.7879 4.21213Z" fill="white"/>
</svg>
