<svg width="35" height="35" viewBox="0 0 35 35" fill="none" xmlns="http://www.w3.org/2000/svg">
<circle cx="17.5" cy="17.5" r="17.5" fill="#1E98BE"/>
<path d="M20.3795 18.901C22.1801 16.3584 21.5779 12.8377 19.0353 11.0375C16.4927 9.23736 12.9719 9.83913 11.1718 12.3821C9.37163 14.9247 9.97341 18.445 12.5164 20.2452C14.3312 21.53 16.7306 21.629 18.6447 20.4986L22.8038 24.6327C23.2529 25.1054 24 25.1243 24.4727 24.6753C24.9455 24.2266 24.9644 23.4795 24.5158 23.0067C24.5016 22.9917 24.4878 22.9779 24.4727 22.9637L20.3795 18.901ZM15.7722 19.2864C13.763 19.2868 12.134 17.6592 12.1327 15.65C12.1323 13.6408 13.76 12.0118 15.7696 12.0109C17.7762 12.0101 19.4043 13.6352 19.4082 15.6418C19.4117 17.6514 17.7848 19.283 15.7748 19.2864C15.7739 19.2864 15.7735 19.2864 15.7722 19.2864Z" fill="white"/>
</svg>
