<svg width="28" height="28" viewBox="0 0 28 28" fill="none" xmlns="http://www.w3.org/2000/svg">
<path d="M23.3332 14C23.3332 19.1546 19.1545 23.3333 13.9998 23.3333C8.84518 23.3333 4.6665 19.1546 4.6665 14C4.6665 8.8453 8.84518 4.66663 13.9998 4.66663C19.1545 4.66663 23.3332 8.8453 23.3332 14ZM6.98451 14C6.98451 17.8744 10.1254 21.0153 13.9998 21.0153C17.8743 21.0153 21.0152 17.8744 21.0152 14C21.0152 10.1255 17.8743 6.98463 13.9998 6.98463C10.1254 6.98463 6.98451 10.1255 6.98451 14Z" fill="#C4C4C4"/>
<path d="M14.7016 26.8609C14.7353 27.4785 15.2644 27.9565 15.8773 27.8736C17.7906 27.6147 19.6339 26.9622 21.2892 25.9527C23.2639 24.7485 24.9095 23.0737 26.0789 21.0782C27.2483 19.0826 27.905 16.8284 27.9905 14.517C28.062 12.5795 27.7303 10.6525 27.021 8.85679C26.7938 8.28148 26.1182 8.05354 25.5629 8.32603C25.0076 8.59853 24.7838 9.26816 25.0022 9.84687C25.5536 11.3074 25.8099 12.8668 25.752 14.4343C25.6802 16.3758 25.1286 18.2694 24.1463 19.9456C23.164 21.6219 21.7817 23.0287 20.1229 24.0403C18.7837 24.857 17.298 25.3955 15.7544 25.6284C15.1427 25.7207 14.6679 26.2432 14.7016 26.8609Z" fill="#C4C4C4"/>
<path d="M12.7641 26.8206C12.7048 27.4363 12.1563 27.8918 11.5473 27.7835C9.64641 27.4452 7.83185 26.7166 6.22 25.6392C4.29707 24.3539 2.72255 22.6121 1.63717 20.5697C0.551786 18.5272 -0.0106411 16.2476 0.000152588 13.9347C0.00919914 11.9959 0.420771 10.0843 1.20414 8.31968C1.45511 7.75432 2.1396 7.55468 2.6831 7.85003C3.22659 8.14538 3.42235 8.82375 3.18002 9.39287C2.56843 10.8292 2.24745 12.3766 2.24013 13.9451C2.23106 15.888 2.7035 17.8028 3.61522 19.5185C4.52694 21.2342 5.84953 22.6973 7.4648 23.7769C8.76887 24.6486 10.2309 25.2485 11.7635 25.5454C12.3708 25.663 12.8235 26.2049 12.7641 26.8206Z" fill="#C4C4C4"/>
<path d="M24.1319 6.04773C24.6185 5.66582 24.7065 4.95827 24.287 4.50376C23.1301 3.25056 21.7517 2.21691 20.218 1.45662C18.3491 0.530187 16.2969 0.033066 14.2112 0.00159367C12.1256 -0.0298787 10.0593 0.405093 8.16329 1.27472C6.60735 1.98838 5.19841 2.97998 4.00426 4.1977C3.57116 4.63934 3.6378 5.34923 4.11264 5.74564C4.58748 6.14205 5.29024 6.07407 5.73002 5.63908C6.7056 4.67411 7.84468 3.88524 9.09717 3.31076C10.6898 2.58028 12.4255 2.2149 14.1774 2.24134C15.9294 2.26778 17.6533 2.68536 19.2231 3.46356C20.4577 4.07557 21.5725 4.89845 22.5185 5.89242C22.9449 6.34048 23.6453 6.42964 24.1319 6.04773Z" fill="#C4C4C4"/>
</svg>
